<svg viewBox="0 0 32 32" xmlns="http://www.w3.org/2000/svg"><rect width="32" height="32" rx="7" fill="#ffffff"/><g fill="none" stroke="#1e40af" stroke-linecap="round"><path d="M8.0 22.2 a 13 13 0 0 1 0 -12.4" stroke-width="1.5"/><path d="M25.7 9.8 a 13 13 0 0 1 0 12.4" stroke-width="1.5"/><path d="M11.0 19.8 a 8 8 0 0 1 0 -7.6" stroke-width="1.4"/><path d="M22.7 12.2 a 8 8 0 0 1 0 7.6" stroke-width="1.4"/></g><path d="M12.6 20.6 L14.55 11.4 h1.4 L17.9 20.6 h-1.75 l-0.38 -2.0 h-1.46 l-0.38 2.0 z M14.55 16.7 h1.05 l-0.52 -3.1 z" fill="#1e40af"/><rect x="18.55" y="14.0" width="1.7" height="6.6" rx="0.85" fill="#d97757"/><circle cx="19.4" cy="11.7" r="1.25" fill="#d97757"/></svg>